%TF.GenerationSoftware,KiCad,Pcbnew,10.0.5*%
%TF.CreationDate,2026-09-10T12:16:28-04:00*%
%TF.ProjectId,diy-ert,6469792d-6572-4742-9e6b-696361645f70,rev?*%
%TF.SameCoordinates,Original*%
%TF.FileFunction,Copper,L1,Top*%
%TF.FilePolarity,Positive*%
%FSLAX46Y46*%
G04 Gerber Fmt 4.6, Leading zero omitted, Abs format (unit mm)*
G04 Created by KiCad (PCBNEW 10.0.5) date 2026-09-10 12:16:28*
%MOMM*%
%LPD*%
G01*
G04 APERTURE LIST*
G04 Aperture macros list*
%AMRoundRect*
0 Rectangle with rounded corners*
0 $1 Rounding radius*
0 $2 $3 $4 $5 $6 $7 $8 $9 X,Y pos of 4 corners*
0 Add a 4 corners polygon primitive as box body*
4,1,4,$2,$3,$4,$5,$6,$7,$8,$9,$2,$3,0*
0 Add four circle primitives for the rounded corners*
1,1,$1+$1,$2,$3*
1,1,$1+$1,$4,$5*
1,1,$1+$1,$6,$7*
1,1,$1+$1,$8,$9*
0 Add four rect primitives between the rounded corners*
20,1,$1+$1,$2,$3,$4,$5,0*
20,1,$1+$1,$4,$5,$6,$7,0*
20,1,$1+$1,$6,$7,$8,$9,0*
20,1,$1+$1,$8,$9,$2,$3,0*%
G04 Aperture macros list end*
%TA.AperFunction,ComponentPad*%
%ADD10RoundRect,0.249999X-0.850001X0.850001X-0.850001X-0.850001X0.850001X-0.850001X0.850001X0.850001X0*%
%TD*%
%TA.AperFunction,ComponentPad*%
%ADD11C,2.200000*%
%TD*%
%TA.AperFunction,ComponentPad*%
%ADD12RoundRect,0.250000X0.550000X-0.550000X0.550000X0.550000X-0.550000X0.550000X-0.550000X-0.550000X0*%
%TD*%
%TA.AperFunction,ComponentPad*%
%ADD13C,1.600000*%
%TD*%
%TA.AperFunction,ComponentPad*%
%ADD14R,1.700000X1.700000*%
%TD*%
%TA.AperFunction,ComponentPad*%
%ADD15C,1.700000*%
%TD*%
%TA.AperFunction,ComponentPad*%
%ADD16R,1.800000X1.800000*%
%TD*%
%TA.AperFunction,ComponentPad*%
%ADD17C,1.800000*%
%TD*%
%TA.AperFunction,ComponentPad*%
%ADD18RoundRect,0.249999X0.850001X0.850001X-0.850001X0.850001X-0.850001X-0.850001X0.850001X-0.850001X0*%
%TD*%
%TA.AperFunction,ComponentPad*%
%ADD19RoundRect,0.250000X-0.550000X-0.550000X0.550000X-0.550000X0.550000X0.550000X-0.550000X0.550000X0*%
%TD*%
%TA.AperFunction,ComponentPad*%
%ADD20RoundRect,0.250000X-0.550000X0.550000X-0.550000X-0.550000X0.550000X-0.550000X0.550000X0.550000X0*%
%TD*%
%TA.AperFunction,ComponentPad*%
%ADD21R,1.600000X1.600000*%
%TD*%
%TA.AperFunction,ComponentPad*%
%ADD22O,1.600000X1.600000*%
%TD*%
%TA.AperFunction,ViaPad*%
%ADD23C,0.600000*%
%TD*%
%TA.AperFunction,Conductor*%
%ADD24C,0.200000*%
%TD*%
G04 APERTURE END LIST*
D10*
%TO.P,VINJ1,1,Pin_1_1*%
%TO.N,Net-(U3-Vs)*%
X137000000Y-105000000D03*
D11*
%TO.P,VINJ1,2,Pin_2_2*%
%TO.N,GND*%
X137000000Y-107540000D03*
%TD*%
D12*
%TO.P,U6,1,QB_1*%
%TO.N,Net-(MUXA1-S1)*%
X74460000Y-71620000D03*
D13*
%TO.P,U6,2,QC_2*%
%TO.N,Net-(MUXA1-S2)*%
X77000000Y-71620000D03*
%TO.P,U6,3,QD_3*%
%TO.N,Net-(MUXA1-S3)*%
X79540000Y-71620000D03*
%TO.P,U6,4,QE_4*%
%TO.N,Net-(MUXB1-S0)*%
X82080000Y-71620000D03*
%TO.P,U6,5,QF_5*%
%TO.N,Net-(MUXB1-S1)*%
X84620000Y-71620000D03*
%TO.P,U6,6,QG_6*%
%TO.N,Net-(MUXB1-S2)*%
X87160000Y-71620000D03*
%TO.P,U6,7,QH_7*%
%TO.N,Net-(MUXB1-S3)*%
X89700000Y-71620000D03*
%TO.P,U6,8,GND_8*%
%TO.N,GND*%
X92240000Y-71620000D03*
%TO.P,U6,9,QH'_9*%
%TO.N,Net-(U6-QH')*%
X92240000Y-64000000D03*
%TO.P,U6,10,~{SRCLR}_10*%
%TO.N,+5V*%
X89700000Y-64000000D03*
%TO.P,U6,11,SRCLK_11*%
%TO.N,Net-(A2-D2)*%
X87160000Y-64000000D03*
%TO.P,U6,12,RCLK_12*%
%TO.N,Net-(A2-D3)*%
X84620000Y-64000000D03*
%TO.P,U6,13,~{OE}_13*%
%TO.N,GND*%
X82080000Y-64000000D03*
%TO.P,U6,14,SER_14*%
%TO.N,Net-(A2-D4)*%
X79540000Y-64000000D03*
%TO.P,U6,15,QA_15*%
%TO.N,Net-(MUXA1-S0)*%
X77000000Y-64000000D03*
%TO.P,U6,16,VCC_16*%
%TO.N,+5V*%
X74460000Y-64000000D03*
%TD*%
%TO.P,C15,1*%
%TO.N,+5V*%
X51500000Y-57000000D03*
%TO.P,C15,2*%
%TO.N,GND*%
X51500000Y-52000000D03*
%TD*%
D14*
%TO.P,J5,1,Pin_1_1*%
%TO.N,+5V*%
X126000000Y-81500000D03*
D15*
%TO.P,J5,2,Pin_2_2*%
%TO.N,GND*%
X126000000Y-84040000D03*
%TO.P,J5,3,Pin_3_3*%
%TO.N,/Net-(A2-D50_MISO)*%
X126000000Y-86580000D03*
%TO.P,J5,4,Pin_4_4*%
%TO.N,/Net-(A2-D51_MOSI)*%
X126000000Y-89120000D03*
%TO.P,J5,5,Pin_5_5*%
%TO.N,/Net-(A2-D52_SCK)*%
X126000000Y-91660000D03*
%TO.P,J5,6,Pin_6_6*%
%TO.N,/Net-(A2-D53_CS)*%
X126000000Y-94200000D03*
%TD*%
D13*
%TO.P,C4,1*%
%TO.N,GND*%
X37500000Y-119500000D03*
%TO.P,C4,2*%
%TO.N,+5V*%
X32500000Y-119500000D03*
%TD*%
%TO.P,R5,1*%
%TO.N,Net-(U3-OUT2)*%
X122000000Y-101920000D03*
%TO.P,R5,2*%
%TO.N,Net-(U1-AIN2)*%
X122000000Y-112080000D03*
%TD*%
%TO.P,C6,1*%
%TO.N,GND*%
X96995000Y-35770000D03*
%TO.P,C6,2*%
%TO.N,+5V*%
X96995000Y-40770000D03*
%TD*%
D12*
%TO.P,U7,1,QB_1*%
%TO.N,Net-(MUXC1-S1)*%
X41460000Y-71620000D03*
D13*
%TO.P,U7,2,QC_2*%
%TO.N,Net-(MUXC1-S2)*%
X44000000Y-71620000D03*
%TO.P,U7,3,QD_3*%
%TO.N,Net-(MUXC1-S3)*%
X46540000Y-71620000D03*
%TO.P,U7,4,QE_4*%
%TO.N,Net-(MUXD1-S0)*%
X49080000Y-71620000D03*
%TO.P,U7,5,QF_5*%
%TO.N,Net-(MUXD1-S1)*%
X51620000Y-71620000D03*
%TO.P,U7,6,QG_6*%
%TO.N,Net-(MUXD1-S2)*%
X54160000Y-71620000D03*
%TO.P,U7,7,QH_7*%
%TO.N,Net-(MUXD1-S3)*%
X56700000Y-71620000D03*
%TO.P,U7,8,GND_8*%
%TO.N,GND*%
X59240000Y-71620000D03*
%TO.P,U7,9,QH'_9*%
%TO.N,Net-(U7-QH')*%
X59240000Y-64000000D03*
%TO.P,U7,10,~{SRCLR}_10*%
%TO.N,+5V*%
X56700000Y-64000000D03*
%TO.P,U7,11,SRCLK_11*%
%TO.N,Net-(A2-D2)*%
X54160000Y-64000000D03*
%TO.P,U7,12,RCLK_12*%
%TO.N,Net-(A2-D3)*%
X51620000Y-64000000D03*
%TO.P,U7,13,~{OE}_13*%
%TO.N,GND*%
X49080000Y-64000000D03*
%TO.P,U7,14,SER_14*%
%TO.N,Net-(U6-QH')*%
X46540000Y-64000000D03*
%TO.P,U7,15,QA_15*%
%TO.N,Net-(MUXC1-S0)*%
X44000000Y-64000000D03*
%TO.P,U7,16,VCC_16*%
%TO.N,+5V*%
X41460000Y-64000000D03*
%TD*%
D12*
%TO.P,MUXD1,1,COM_1*%
%TO.N,Net-(MUXD1-COM)*%
X82960000Y-117740000D03*
D13*
%TO.P,MUXD1,2,I7_2*%
%TO.N,/E7*%
X85500000Y-117740000D03*
%TO.P,MUXD1,3,I6_3*%
%TO.N,/E6*%
X88040000Y-117740000D03*
%TO.P,MUXD1,4,I5_4*%
%TO.N,/E5*%
X90580000Y-117740000D03*
%TO.P,MUXD1,5,I4_5*%
%TO.N,/E4*%
X93120000Y-117740000D03*
%TO.P,MUXD1,6,I3_6*%
%TO.N,/E3*%
X95660000Y-117740000D03*
%TO.P,MUXD1,7,I2_7*%
%TO.N,/E2*%
X98200000Y-117740000D03*
%TO.P,MUXD1,8,I1_8*%
%TO.N,/E1*%
X100740000Y-117740000D03*
%TO.P,MUXD1,9,I0_9*%
%TO.N,/E0*%
X103280000Y-117740000D03*
%TO.P,MUXD1,10,S0_10*%
%TO.N,Net-(MUXD1-S0)*%
X105820000Y-117740000D03*
%TO.P,MUXD1,11,S1_11*%
%TO.N,Net-(MUXD1-S1)*%
X108360000Y-117740000D03*
%TO.P,MUXD1,12,GND_12*%
%TO.N,GND*%
X110900000Y-117740000D03*
%TO.P,MUXD1,13,S3_13*%
%TO.N,Net-(MUXD1-S3)*%
X110900000Y-102500000D03*
%TO.P,MUXD1,14,S2_14*%
%TO.N,Net-(MUXD1-S2)*%
X108360000Y-102500000D03*
%TO.P,MUXD1,15,~{E}_15*%
%TO.N,GND*%
X105820000Y-102500000D03*
%TO.P,MUXD1,16,I15_16*%
%TO.N,/E15*%
X103280000Y-102500000D03*
%TO.P,MUXD1,17,I14_17*%
%TO.N,/E14*%
X100740000Y-102500000D03*
%TO.P,MUXD1,18,I13_18*%
%TO.N,/E13*%
X98200000Y-102500000D03*
%TO.P,MUXD1,19,I12_19*%
%TO.N,/E12*%
X95660000Y-102500000D03*
%TO.P,MUXD1,20,I11_20*%
%TO.N,/E11*%
X93120000Y-102500000D03*
%TO.P,MUXD1,21,I10_21*%
%TO.N,/E10*%
X90580000Y-102500000D03*
%TO.P,MUXD1,22,I9_22*%
%TO.N,/E9*%
X88040000Y-102500000D03*
%TO.P,MUXD1,23,I8_23*%
%TO.N,/E8*%
X85500000Y-102500000D03*
%TO.P,MUXD1,24,VCC_24*%
%TO.N,+5V*%
X82960000Y-102500000D03*
%TD*%
%TO.P,C13,1*%
%TO.N,+5V*%
X121500000Y-80000000D03*
%TO.P,C13,2*%
%TO.N,GND*%
X121500000Y-85000000D03*
%TD*%
%TO.P,C3,1*%
%TO.N,GND*%
X116500000Y-84000000D03*
%TO.P,C3,2*%
%TO.N,+5V*%
X116500000Y-89000000D03*
%TD*%
%TO.P,C8,1*%
%TO.N,GND*%
X130000000Y-125000000D03*
%TO.P,C8,2*%
%TO.N,Net-(U3-Vs)*%
X130000000Y-120000000D03*
%TD*%
D16*
%TO.P,U3,1,SENSE_A_1*%
%TO.N,GND*%
X144580000Y-129470000D03*
D17*
%TO.P,U3,2,OUT1_2*%
%TO.N,Net-(MUXA1-COM)*%
X139500000Y-128200000D03*
%TO.P,U3,3,OUT2_3*%
%TO.N,Net-(U3-OUT2)*%
X144580000Y-126930000D03*
%TO.P,U3,4,Vs_4*%
%TO.N,Net-(U3-Vs)*%
X139500000Y-125660000D03*
%TO.P,U3,5,IN1_5*%
%TO.N,Net-(U3-IN1)*%
X144580000Y-124390000D03*
%TO.P,U3,6,EnA_6*%
%TO.N,+5V*%
X139500000Y-123120000D03*
%TO.P,U3,7,IN2_7*%
%TO.N,Net-(U3-IN2)*%
X144580000Y-121850000D03*
%TO.P,U3,8,GND_8*%
%TO.N,GND*%
X139500000Y-120580000D03*
%TO.P,U3,9,Vss_9*%
%TO.N,+5V*%
X144580000Y-119310000D03*
%TO.P,U3,10,IN3_10*%
%TO.N,unconnected-(U3-IN3-Pad10)*%
X139500000Y-118040000D03*
%TO.P,U3,11,EnB_11*%
%TO.N,GND*%
X144580000Y-116770000D03*
%TO.P,U3,12,IN4_12*%
%TO.N,unconnected-(U3-IN4-Pad12)*%
X139500000Y-115500000D03*
%TO.P,U3,13,OUT3_13*%
%TO.N,unconnected-(U3-OUT3-Pad13)*%
X144580000Y-114230000D03*
%TO.P,U3,14,OUT4_14*%
%TO.N,unconnected-(U3-OUT4-Pad14)*%
X139500000Y-112960000D03*
%TO.P,U3,15,SENSE_B_15*%
%TO.N,GND*%
X144580000Y-111690000D03*
%TD*%
D18*
%TO.P,J2,1,Pin_1_1*%
%TO.N,/E8*%
X104540000Y-126500000D03*
D11*
%TO.P,J2,2,Pin_2_2*%
%TO.N,/E9*%
X102000000Y-126500000D03*
%TO.P,J2,3,Pin_3_3*%
%TO.N,/E10*%
X99460000Y-126500000D03*
%TO.P,J2,4,Pin_4_4*%
%TO.N,/E11*%
X96920000Y-126500000D03*
%TO.P,J2,5,Pin_5_5*%
%TO.N,/E12*%
X94380000Y-126500000D03*
%TO.P,J2,6,Pin_6_6*%
%TO.N,/E13*%
X91840000Y-126500000D03*
%TO.P,J2,7,Pin_7_7*%
%TO.N,/E14*%
X89300000Y-126500000D03*
%TO.P,J2,8,Pin_8_8*%
%TO.N,/E15*%
X86760000Y-126500000D03*
%TD*%
D19*
%TO.P,U5,1*%
%TO.N,Net-(U2-Ref)*%
X102380000Y-45690000D03*
D13*
%TO.P,U5,2,-_2*%
X102380000Y-48230000D03*
%TO.P,U5,3,+_3*%
%TO.N,Net-(U5A-+)*%
X102380000Y-50770000D03*
%TO.P,U5,4,V-_4*%
%TO.N,GND*%
X102380000Y-53310000D03*
%TO.P,U5,5,+_5*%
X110000000Y-53310000D03*
%TO.P,U5,6,-_6*%
%TO.N,Net-(U5B--)*%
X110000000Y-50770000D03*
%TO.P,U5,7*%
X110000000Y-48230000D03*
%TO.P,U5,8,V+_8*%
%TO.N,+5V*%
X110000000Y-45690000D03*
%TD*%
%TO.P,C14,1*%
%TO.N,+5V*%
X121500000Y-71500000D03*
%TO.P,C14,2*%
%TO.N,GND*%
X121500000Y-66500000D03*
%TD*%
%TO.P,C17,1*%
%TO.N,GND*%
X35000000Y-70500000D03*
%TO.P,C17,2*%
%TO.N,+5V*%
X35000000Y-65500000D03*
%TD*%
%TO.P,R1,1*%
%TO.N,Net-(MUXC1-COM)*%
X89500000Y-60080000D03*
%TO.P,R1,2*%
%TO.N,Net-(U2-+)*%
X89500000Y-49920000D03*
%TD*%
D12*
%TO.P,MUXC1,1,COM_1*%
%TO.N,Net-(MUXC1-COM)*%
X41880000Y-117240000D03*
D13*
%TO.P,MUXC1,2,I7_2*%
%TO.N,/E7*%
X44420000Y-117240000D03*
%TO.P,MUXC1,3,I6_3*%
%TO.N,/E6*%
X46960000Y-117240000D03*
%TO.P,MUXC1,4,I5_4*%
%TO.N,/E5*%
X49500000Y-117240000D03*
%TO.P,MUXC1,5,I4_5*%
%TO.N,/E4*%
X52040000Y-117240000D03*
%TO.P,MUXC1,6,I3_6*%
%TO.N,/E3*%
X54580000Y-117240000D03*
%TO.P,MUXC1,7,I2_7*%
%TO.N,/E2*%
X57120000Y-117240000D03*
%TO.P,MUXC1,8,I1_8*%
%TO.N,/E1*%
X59660000Y-117240000D03*
%TO.P,MUXC1,9,I0_9*%
%TO.N,/E0*%
X62200000Y-117240000D03*
%TO.P,MUXC1,10,S0_10*%
%TO.N,Net-(MUXC1-S0)*%
X64740000Y-117240000D03*
%TO.P,MUXC1,11,S1_11*%
%TO.N,Net-(MUXC1-S1)*%
X67280000Y-117240000D03*
%TO.P,MUXC1,12,GND_12*%
%TO.N,GND*%
X69820000Y-117240000D03*
%TO.P,MUXC1,13,S3_13*%
%TO.N,Net-(MUXC1-S3)*%
X69820000Y-102000000D03*
%TO.P,MUXC1,14,S2_14*%
%TO.N,Net-(MUXC1-S2)*%
X67280000Y-102000000D03*
%TO.P,MUXC1,15,~{E}_15*%
%TO.N,GND*%
X64740000Y-102000000D03*
%TO.P,MUXC1,16,I15_16*%
%TO.N,/E15*%
X62200000Y-102000000D03*
%TO.P,MUXC1,17,I14_17*%
%TO.N,/E14*%
X59660000Y-102000000D03*
%TO.P,MUXC1,18,I13_18*%
%TO.N,/E13*%
X57120000Y-102000000D03*
%TO.P,MUXC1,19,I12_19*%
%TO.N,/E12*%
X54580000Y-102000000D03*
%TO.P,MUXC1,20,I11_20*%
%TO.N,/E11*%
X52040000Y-102000000D03*
%TO.P,MUXC1,21,I10_21*%
%TO.N,/E10*%
X49500000Y-102000000D03*
%TO.P,MUXC1,22,I9_22*%
%TO.N,/E9*%
X46960000Y-102000000D03*
%TO.P,MUXC1,23,I8_23*%
%TO.N,/E8*%
X44420000Y-102000000D03*
%TO.P,MUXC1,24,VCC_24*%
%TO.N,+5V*%
X41880000Y-102000000D03*
%TD*%
%TO.P,C2,1*%
%TO.N,GND*%
X78000000Y-119000000D03*
%TO.P,C2,2*%
%TO.N,+5V*%
X78000000Y-114000000D03*
%TD*%
%TO.P,C7,1*%
%TO.N,+5V*%
X96995000Y-49270000D03*
%TO.P,C7,2*%
%TO.N,GND*%
X96995000Y-44270000D03*
%TD*%
%TO.P,R8,1*%
%TO.N,Net-(U5A-+)*%
X107500000Y-74080000D03*
%TO.P,R8,2*%
%TO.N,GND*%
X107500000Y-63920000D03*
%TD*%
D20*
%TO.P,U8,1,QB_1*%
%TO.N,Net-(U3-IN2)*%
X76700000Y-50380000D03*
D13*
%TO.P,U8,2,QC_2*%
%TO.N,unconnected-(U8-QC-Pad2)*%
X74160000Y-50380000D03*
%TO.P,U8,3,QD_3*%
%TO.N,unconnected-(U8-QD-Pad3)*%
X71620000Y-50380000D03*
%TO.P,U8,4,QE_4*%
%TO.N,unconnected-(U8-QE-Pad4)*%
X69080000Y-50380000D03*
%TO.P,U8,5,QF_5*%
%TO.N,unconnected-(U8-QF-Pad5)*%
X66540000Y-50380000D03*
%TO.P,U8,6,QG_6*%
%TO.N,unconnected-(U8-QG-Pad6)*%
X64000000Y-50380000D03*
%TO.P,U8,7,QH_7*%
%TO.N,unconnected-(U8-QH-Pad7)*%
X61460000Y-50380000D03*
%TO.P,U8,8,GND_8*%
%TO.N,GND*%
X58920000Y-50380000D03*
%TO.P,U8,9,QH'_9*%
%TO.N,unconnected-(U8-QH'-Pad9)*%
X58920000Y-58000000D03*
%TO.P,U8,10,~{SRCLR}_10*%
%TO.N,+5V*%
X61460000Y-58000000D03*
%TO.P,U8,11,SRCLK_11*%
%TO.N,Net-(A2-D2)*%
X64000000Y-58000000D03*
%TO.P,U8,12,RCLK_12*%
%TO.N,Net-(A2-D3)*%
X66540000Y-58000000D03*
%TO.P,U8,13,~{OE}_13*%
%TO.N,GND*%
X69080000Y-58000000D03*
%TO.P,U8,14,SER_14*%
%TO.N,Net-(U7-QH')*%
X71620000Y-58000000D03*
%TO.P,U8,15,QA_15*%
%TO.N,Net-(U3-IN1)*%
X74160000Y-58000000D03*
%TO.P,U8,16,VCC_16*%
%TO.N,+5V*%
X76700000Y-58000000D03*
%TD*%
%TO.P,C11,1*%
%TO.N,Net-(U2-Ref)*%
X96995000Y-32770000D03*
%TO.P,C11,2*%
%TO.N,GND*%
X96995000Y-27770000D03*
%TD*%
D19*
%TO.P,U2,1,Rg_1*%
%TO.N,Net-(R6-Pad1)*%
X102190000Y-31690000D03*
D13*
%TO.P,U2,2,-_2*%
%TO.N,Net-(U2--)*%
X102190000Y-34230000D03*
%TO.P,U2,3,+_3*%
%TO.N,Net-(U2-+)*%
X102190000Y-36770000D03*
%TO.P,U2,4,Vs-_4*%
%TO.N,GND*%
X102190000Y-39310000D03*
%TO.P,U2,5,Ref_5*%
%TO.N,Net-(U2-Ref)*%
X109810000Y-39310000D03*
%TO.P,U2,6*%
%TO.N,Net-(R9-Pad2)*%
X109810000Y-36770000D03*
%TO.P,U2,7,Vs+_7*%
%TO.N,+5V*%
X109810000Y-34230000D03*
%TO.P,U2,8,Rg_8*%
%TO.N,Net-(R6-Pad2)*%
X109810000Y-31690000D03*
%TD*%
D18*
%TO.P,J1,1,Pin_1_1*%
%TO.N,/E0*%
X62000000Y-126500000D03*
D11*
%TO.P,J1,2,Pin_2_2*%
%TO.N,/E1*%
X59460000Y-126500000D03*
%TO.P,J1,3,Pin_3_3*%
%TO.N,/E2*%
X56920000Y-126500000D03*
%TO.P,J1,4,Pin_4_4*%
%TO.N,/E3*%
X54380000Y-126500000D03*
%TO.P,J1,5,Pin_5_5*%
%TO.N,/E4*%
X51840000Y-126500000D03*
%TO.P,J1,6,Pin_6_6*%
%TO.N,/E5*%
X49300000Y-126500000D03*
%TO.P,J1,7,Pin_7_7*%
%TO.N,/E6*%
X46760000Y-126500000D03*
%TO.P,J1,8,Pin_8_8*%
%TO.N,/E7*%
X44220000Y-126500000D03*
%TD*%
D12*
%TO.P,MUXB1,1,COM_1*%
%TO.N,Net-(MUXB1-COM)*%
X82680000Y-94240000D03*
D13*
%TO.P,MUXB1,2,I7_2*%
%TO.N,/E7*%
X85220000Y-94240000D03*
%TO.P,MUXB1,3,I6_3*%
%TO.N,/E6*%
X87760000Y-94240000D03*
%TO.P,MUXB1,4,I5_4*%
%TO.N,/E5*%
X90300000Y-94240000D03*
%TO.P,MUXB1,5,I4_5*%
%TO.N,/E4*%
X92840000Y-94240000D03*
%TO.P,MUXB1,6,I3_6*%
%TO.N,/E3*%
X95380000Y-94240000D03*
%TO.P,MUXB1,7,I2_7*%
%TO.N,/E2*%
X97920000Y-94240000D03*
%TO.P,MUXB1,8,I1_8*%
%TO.N,/E1*%
X100460000Y-94240000D03*
%TO.P,MUXB1,9,I0_9*%
%TO.N,/E0*%
X103000000Y-94240000D03*
%TO.P,MUXB1,10,S0_10*%
%TO.N,Net-(MUXB1-S0)*%
X105540000Y-94240000D03*
%TO.P,MUXB1,11,S1_11*%
%TO.N,Net-(MUXB1-S1)*%
X108080000Y-94240000D03*
%TO.P,MUXB1,12,GND_12*%
%TO.N,GND*%
X110620000Y-94240000D03*
%TO.P,MUXB1,13,S3_13*%
%TO.N,Net-(MUXB1-S3)*%
X110620000Y-79000000D03*
%TO.P,MUXB1,14,S2_14*%
%TO.N,Net-(MUXB1-S2)*%
X108080000Y-79000000D03*
%TO.P,MUXB1,15,~{E}_15*%
%TO.N,GND*%
X105540000Y-79000000D03*
%TO.P,MUXB1,16,I15_16*%
%TO.N,/E15*%
X103000000Y-79000000D03*
%TO.P,MUXB1,17,I14_17*%
%TO.N,/E14*%
X100460000Y-79000000D03*
%TO.P,MUXB1,18,I13_18*%
%TO.N,/E13*%
X97920000Y-79000000D03*
%TO.P,MUXB1,19,I12_19*%
%TO.N,/E12*%
X95380000Y-79000000D03*
%TO.P,MUXB1,20,I11_20*%
%TO.N,/E11*%
X92840000Y-79000000D03*
%TO.P,MUXB1,21,I10_21*%
%TO.N,/E10*%
X90300000Y-79000000D03*
%TO.P,MUXB1,22,I9_22*%
%TO.N,/E9*%
X87760000Y-79000000D03*
%TO.P,MUXB1,23,I8_23*%
%TO.N,/E8*%
X85220000Y-79000000D03*
%TO.P,MUXB1,24,VCC_24*%
%TO.N,+5V*%
X82680000Y-79000000D03*
%TD*%
D19*
%TO.P,C10,1*%
%TO.N,Net-(U3-Vs)*%
X128000000Y-105960000D03*
D13*
%TO.P,C10,2*%
%TO.N,GND*%
X130500000Y-105960000D03*
%TD*%
%TO.P,C9,1*%
%TO.N,GND*%
X127500000Y-117000000D03*
%TO.P,C9,2*%
%TO.N,+5V*%
X127500000Y-112000000D03*
%TD*%
%TO.P,R6,1*%
%TO.N,Net-(R6-Pad1)*%
X101420000Y-27500000D03*
%TO.P,R6,2*%
%TO.N,Net-(R6-Pad2)*%
X111580000Y-27500000D03*
%TD*%
%TO.P,R9,1*%
%TO.N,Net-(U1-AIN0)*%
X114500000Y-74080000D03*
%TO.P,R9,2*%
%TO.N,Net-(R9-Pad2)*%
X114500000Y-63920000D03*
%TD*%
%TO.P,C5,1*%
%TO.N,+5V*%
X120495000Y-44770000D03*
%TO.P,C5,2*%
%TO.N,GND*%
X120495000Y-39770000D03*
%TD*%
%TO.P,R2,1*%
%TO.N,Net-(MUXD1-COM)*%
X84000000Y-59580000D03*
%TO.P,R2,2*%
%TO.N,Net-(U2--)*%
X84000000Y-49420000D03*
%TD*%
%TO.P,R7,1*%
%TO.N,+5V*%
X100500000Y-74080000D03*
%TO.P,R7,2*%
%TO.N,Net-(U5A-+)*%
X100500000Y-63920000D03*
%TD*%
D19*
%TO.P,C12,1*%
%TO.N,+5V*%
X85500000Y-29000000D03*
D13*
%TO.P,C12,2*%
%TO.N,GND*%
X88000000Y-29000000D03*
%TD*%
%TO.P,C16,1*%
%TO.N,GND*%
X68000000Y-70500000D03*
%TO.P,C16,2*%
%TO.N,+5V*%
X68000000Y-65500000D03*
%TD*%
%TO.P,R4,1*%
%TO.N,Net-(MUXB1-COM)*%
X131500000Y-128500000D03*
%TO.P,R4,2*%
%TO.N,Net-(U1-AIN3)*%
X121340000Y-128500000D03*
%TD*%
D14*
%TO.P,J3,1,Pin_1_1*%
%TO.N,GND*%
X125500000Y-73000000D03*
D15*
%TO.P,J3,2,Pin_2_2*%
%TO.N,+5V*%
X125500000Y-70460000D03*
%TO.P,J3,3,Pin_3_3*%
%TO.N,/Net-(A2-D20{slash}SDA)*%
X125500000Y-67920000D03*
%TO.P,J3,4,Pin_4_4*%
%TO.N,/Net-(A2-D21{slash}SCL)*%
X125500000Y-65380000D03*
%TD*%
D21*
%TO.P,A2,1,D1/TX_1*%
%TO.N,unconnected-(A2-D1{slash}TX-Pad1)*%
X38450000Y-43110000D03*
D22*
%TO.P,A2,2,D0/RX_2*%
%TO.N,unconnected-(A2-D0{slash}RX-Pad2)*%
X40990000Y-43110000D03*
%TO.P,A2,3,~{RESET}_3*%
%TO.N,unconnected-(A2-~{RESET}-Pad3)*%
X43530000Y-43110000D03*
%TO.P,A2,4,GND_4*%
%TO.N,GND*%
X46070000Y-43110000D03*
%TO.P,A2,5,D2_5*%
%TO.N,Net-(A2-D2)*%
X48610000Y-43110000D03*
%TO.P,A2,6,D3_6*%
%TO.N,Net-(A2-D3)*%
X51150000Y-43110000D03*
%TO.P,A2,7,D4_7*%
%TO.N,Net-(A2-D4)*%
X53690000Y-43110000D03*
%TO.P,A2,8,D5_8*%
%TO.N,unconnected-(A2-D5-Pad8)*%
X56230000Y-43110000D03*
%TO.P,A2,9,D6_9*%
%TO.N,unconnected-(A2-D6-Pad9)*%
X58770000Y-43110000D03*
%TO.P,A2,10,D7_10*%
%TO.N,unconnected-(A2-D7-Pad10)*%
X61310000Y-43110000D03*
%TO.P,A2,11,D8_11*%
%TO.N,unconnected-(A2-D8-Pad11)*%
X63850000Y-43110000D03*
%TO.P,A2,12,D9_12*%
%TO.N,unconnected-(A2-D9-Pad12)*%
X66390000Y-43110000D03*
%TO.P,A2,13,D10_13*%
%TO.N,/Net-(A2-D53_CS)*%
X68930000Y-43110000D03*
%TO.P,A2,14,D11_14*%
%TO.N,/Net-(A2-D51_MOSI)*%
X71470000Y-43110000D03*
%TO.P,A2,15,D12_15*%
%TO.N,/Net-(A2-D50_MISO)*%
X74010000Y-43110000D03*
%TO.P,A2,16,D13_16*%
%TO.N,/Net-(A2-D52_SCK)*%
X74010000Y-27870000D03*
%TO.P,A2,17,3V3_17*%
%TO.N,unconnected-(A2-3V3-Pad17)*%
X71470000Y-27870000D03*
%TO.P,A2,18,AREF_18*%
%TO.N,unconnected-(A2-AREF-Pad18)*%
X68930000Y-27870000D03*
%TO.P,A2,19,A0_19*%
%TO.N,unconnected-(A2-A0-Pad19)*%
X66390000Y-27870000D03*
%TO.P,A2,20,A1_20*%
%TO.N,unconnected-(A2-A1-Pad20)*%
X63850000Y-27870000D03*
%TO.P,A2,21,A2_21*%
%TO.N,unconnected-(A2-A2-Pad21)*%
X61310000Y-27870000D03*
%TO.P,A2,22,A3_22*%
%TO.N,unconnected-(A2-A3-Pad22)*%
X58770000Y-27870000D03*
%TO.P,A2,23,A4_23*%
%TO.N,/Net-(A2-D20{slash}SDA)*%
X56230000Y-27870000D03*
%TO.P,A2,24,A5_24*%
%TO.N,/Net-(A2-D21{slash}SCL)*%
X53690000Y-27870000D03*
%TO.P,A2,25,A6_25*%
%TO.N,unconnected-(A2-A6-Pad25)*%
X51150000Y-27870000D03*
%TO.P,A2,26,A7_26*%
%TO.N,unconnected-(A2-A7-Pad26)*%
X48610000Y-27870000D03*
%TO.P,A2,27,+5V_27*%
%TO.N,+5V*%
X46070000Y-27870000D03*
%TO.P,A2,28,~{RESET}_28*%
%TO.N,unconnected-(A2-~{RESET}-Pad28)*%
X43530000Y-27870000D03*
%TO.P,A2,29,GND_29*%
%TO.N,GND*%
X40990000Y-27870000D03*
%TO.P,A2,30,VIN_30*%
%TO.N,unconnected-(A2-VIN-Pad30)*%
X38450000Y-27870000D03*
%TD*%
D13*
%TO.P,C18,1*%
%TO.N,GND*%
X34500000Y-48500000D03*
%TO.P,C18,2*%
%TO.N,+5V*%
X39500000Y-48500000D03*
%TD*%
%TO.P,R3,1*%
%TO.N,Net-(MUXB1-COM)*%
X122000000Y-114920000D03*
%TO.P,R3,2*%
%TO.N,Net-(U3-OUT2)*%
X122000000Y-125080000D03*
%TD*%
D12*
%TO.P,MUXA1,1,COM_1*%
%TO.N,Net-(MUXA1-COM)*%
X41640000Y-94000000D03*
D13*
%TO.P,MUXA1,2,I7_2*%
%TO.N,/E7*%
X44180000Y-94000000D03*
%TO.P,MUXA1,3,I6_3*%
%TO.N,/E6*%
X46720000Y-94000000D03*
%TO.P,MUXA1,4,I5_4*%
%TO.N,/E5*%
X49260000Y-94000000D03*
%TO.P,MUXA1,5,I4_5*%
%TO.N,/E4*%
X51800000Y-94000000D03*
%TO.P,MUXA1,6,I3_6*%
%TO.N,/E3*%
X54340000Y-94000000D03*
%TO.P,MUXA1,7,I2_7*%
%TO.N,/E2*%
X56880000Y-94000000D03*
%TO.P,MUXA1,8,I1_8*%
%TO.N,/E1*%
X59420000Y-94000000D03*
%TO.P,MUXA1,9,I0_9*%
%TO.N,/E0*%
X61960000Y-94000000D03*
%TO.P,MUXA1,10,S0_10*%
%TO.N,Net-(MUXA1-S0)*%
X64500000Y-94000000D03*
%TO.P,MUXA1,11,S1_11*%
%TO.N,Net-(MUXA1-S1)*%
X67040000Y-94000000D03*
%TO.P,MUXA1,12,GND_12*%
%TO.N,GND*%
X69580000Y-94000000D03*
%TO.P,MUXA1,13,S3_13*%
%TO.N,Net-(MUXA1-S3)*%
X69580000Y-78760000D03*
%TO.P,MUXA1,14,S2_14*%
%TO.N,Net-(MUXA1-S2)*%
X67040000Y-78760000D03*
%TO.P,MUXA1,15,~{E}_15*%
%TO.N,GND*%
X64500000Y-78760000D03*
%TO.P,MUXA1,16,I15_16*%
%TO.N,/E15*%
X61960000Y-78760000D03*
%TO.P,MUXA1,17,I14_17*%
%TO.N,/E14*%
X59420000Y-78760000D03*
%TO.P,MUXA1,18,I13_18*%
%TO.N,/E13*%
X56880000Y-78760000D03*
%TO.P,MUXA1,19,I12_19*%
%TO.N,/E12*%
X54340000Y-78760000D03*
%TO.P,MUXA1,20,I11_20*%
%TO.N,/E11*%
X51800000Y-78760000D03*
%TO.P,MUXA1,21,I10_21*%
%TO.N,/E10*%
X49260000Y-78760000D03*
%TO.P,MUXA1,22,I9_22*%
%TO.N,/E9*%
X46720000Y-78760000D03*
%TO.P,MUXA1,23,I8_23*%
%TO.N,/E8*%
X44180000Y-78760000D03*
%TO.P,MUXA1,24,VCC_24*%
%TO.N,+5V*%
X41640000Y-78760000D03*
%TD*%
%TO.P,C1,1*%
%TO.N,+5V*%
X37000000Y-94000000D03*
%TO.P,C1,2*%
%TO.N,GND*%
X32000000Y-94000000D03*
%TD*%
D14*
%TO.P,U1,1,ADDR_1*%
%TO.N,GND*%
X125995000Y-31650000D03*
D15*
%TO.P,U1,2,ALERT/RDY_2*%
%TO.N,unconnected-(U1-ALERT{slash}RDY-Pad2)*%
X125995000Y-34190000D03*
%TO.P,U1,3,GND_3*%
%TO.N,GND*%
X125995000Y-36730000D03*
%TO.P,U1,4,AIN0_4*%
%TO.N,Net-(U1-AIN0)*%
X125995000Y-39270000D03*
%TO.P,U1,5,AIN1_5*%
%TO.N,unconnected-(U1-AIN1-Pad5)*%
X125995000Y-41810000D03*
%TO.P,U1,6,AIN2_6*%
%TO.N,Net-(U1-AIN2)*%
X125995000Y-44350000D03*
%TO.P,U1,7,AIN3_7*%
%TO.N,Net-(U1-AIN3)*%
X125995000Y-46890000D03*
%TO.P,U1,8,VDD_8*%
%TO.N,+5V*%
X125995000Y-49430000D03*
%TO.P,U1,9,SDA_9*%
%TO.N,/Net-(A2-D20{slash}SDA)*%
X125995000Y-51970000D03*
%TO.P,U1,10,SCL_10*%
%TO.N,/Net-(A2-D21{slash}SCL)*%
X125995000Y-54510000D03*
%TD*%
D23*
%TO.N,+5V*%
X118951000Y-84436200D03*
%TO.N,/Net-(A2-D52_SCK)*%
X101189800Y-90266200D03*
%TO.N,Net-(MUXD1-S0)*%
X104118300Y-103434700D03*
%TO.N,Net-(MUXD1-S1)*%
X102263600Y-72523900D03*
%TO.N,/E13*%
X99885500Y-120928200D03*
%TO.N,/E12*%
X98681000Y-122715600D03*
%TO.N,/E11*%
X98789000Y-123628000D03*
%TO.N,/E10*%
X98828100Y-124389700D03*
%TO.N,Net-(U3-IN1)*%
X91181900Y-100305900D03*
X83718600Y-61832000D03*
%TO.N,Net-(U3-IN2)*%
X95899100Y-92474200D03*
%TO.N,Net-(MUXC1-COM)*%
X49737300Y-66376400D03*
X43120200Y-116386000D03*
%TO.N,Net-(MUXC1-S0)*%
X56063800Y-118641700D03*
%TO.N,Net-(MUXC1-S1)*%
X63611600Y-99453200D03*
%TO.N,Net-(U2--)*%
X87180400Y-46215100D03*
%TO.N,Net-(A2-D4)*%
X79540000Y-59439800D03*
%TD*%
%TO.N,Net-(U3-Vs)*%
D24*
X130029100Y-103930900D02*
X135930900Y-103930900D01*
X135660000Y-125660000D02*
X139500000Y-125660000D01*
X135930900Y-103930900D02*
X137000000Y-105000000D01*
X128000000Y-105960000D02*
X130029100Y-103930900D01*
X130000000Y-120000000D02*
X135660000Y-125660000D01*
%TO.N,GND*%
X110000000Y-53310000D02*
X102380000Y-53310000D01*
X139500000Y-120580000D02*
X134615000Y-120580000D01*
X95765000Y-29000000D02*
X96995000Y-27770000D01*
X58920000Y-50380000D02*
X53120000Y-50380000D01*
X140430000Y-107540000D02*
X144580000Y-111690000D01*
X130891200Y-106351200D02*
X135811200Y-106351200D01*
X131035000Y-117000000D02*
X127500000Y-117000000D01*
X64219800Y-55679800D02*
X66759800Y-55679800D01*
X58920000Y-50380000D02*
X64219800Y-55679800D01*
X59240000Y-71620000D02*
X66880000Y-71620000D01*
X120495000Y-39770000D02*
X123535000Y-36730000D01*
X108560200Y-77901600D02*
X106638400Y-77901600D01*
X120495000Y-39770000D02*
X116426100Y-35701100D01*
X123535000Y-36730000D02*
X125995000Y-36730000D01*
X76240000Y-117240000D02*
X78000000Y-119000000D01*
X66880000Y-71620000D02*
X68000000Y-70500000D01*
X52178300Y-51321700D02*
X51500000Y-52000000D01*
X104093300Y-77553300D02*
X98173300Y-77553300D01*
X98042500Y-36817500D02*
X96995000Y-35770000D01*
X98173300Y-77553300D02*
X92240000Y-71620000D01*
X46070000Y-43110000D02*
X45018300Y-43110000D01*
X109350000Y-79218800D02*
X109350000Y-78691400D01*
X45018300Y-43110000D02*
X45018300Y-44161700D01*
X134615000Y-120580000D02*
X131035000Y-117000000D01*
X126760000Y-117740000D02*
X110900000Y-117740000D01*
X88000000Y-29000000D02*
X95765000Y-29000000D01*
X101748600Y-35701100D02*
X100164900Y-37284800D01*
X116500000Y-84000000D02*
X114131200Y-84000000D01*
X69820000Y-117240000D02*
X76240000Y-117240000D01*
X100164900Y-37284800D02*
X99697500Y-36817500D01*
X45018300Y-44161700D02*
X38838300Y-44161700D01*
X52178300Y-51321700D02*
X45018300Y-44161700D01*
X106638400Y-77901600D02*
X105540000Y-79000000D01*
X53120000Y-50380000D02*
X52178300Y-51321700D01*
X127500000Y-117000000D02*
X126760000Y-117740000D01*
X125040000Y-85000000D02*
X126000000Y-84040000D01*
X116426100Y-35701100D02*
X101748600Y-35701100D01*
X99697500Y-36817500D02*
X98042500Y-36817500D01*
X105540000Y-79000000D02*
X104093300Y-77553300D01*
X67560000Y-119500000D02*
X69820000Y-117240000D01*
X121500000Y-66500000D02*
X110080000Y-66500000D01*
X135811200Y-106351200D02*
X137000000Y-107540000D01*
X110080000Y-66500000D02*
X107500000Y-63920000D01*
X130500000Y-105960000D02*
X130891200Y-106351200D01*
X109350000Y-78691400D02*
X108560200Y-77901600D01*
X121500000Y-85000000D02*
X125040000Y-85000000D01*
X114131200Y-84000000D02*
X109350000Y-79218800D01*
X37500000Y-119500000D02*
X67560000Y-119500000D01*
X38838300Y-44161700D02*
X34500000Y-48500000D01*
X137000000Y-107540000D02*
X140430000Y-107540000D01*
X102190000Y-39310000D02*
X100164900Y-37284800D01*
X66759800Y-55679800D02*
X69080000Y-58000000D01*
%TO.N,+5V*%
X61460000Y-58000000D02*
X60379000Y-59081000D01*
X120495000Y-44770000D02*
X110920000Y-44770000D01*
X96995000Y-40495000D02*
X96995000Y-40770000D01*
X80427000Y-58000000D02*
X76700000Y-58000000D01*
X140698800Y-119310000D02*
X140698800Y-121921200D01*
X58200000Y-65500000D02*
X56700000Y-64000000D01*
X121500000Y-80000000D02*
X123398300Y-80000000D01*
X140698800Y-121921200D02*
X139500000Y-123120000D01*
X116500000Y-89000000D02*
X116500000Y-86887200D01*
X108693100Y-46996900D02*
X99268100Y-46996900D01*
X125155000Y-49430000D02*
X125995000Y-49430000D01*
X110920000Y-44770000D02*
X110000000Y-45690000D01*
X126000000Y-81500000D02*
X124898300Y-81500000D01*
X110000000Y-45690000D02*
X108693100Y-46996900D01*
X124460000Y-71500000D02*
X121500000Y-71500000D01*
X41460000Y-64000000D02*
X39960000Y-65500000D01*
X140698800Y-119310000D02*
X144580000Y-119310000D01*
X134810000Y-119310000D02*
X127500000Y-112000000D01*
X116500000Y-86887200D02*
X118951000Y-84436200D01*
X99268100Y-46996900D02*
X96995000Y-49270000D01*
X68000000Y-65500000D02*
X58200000Y-65500000D01*
X60379000Y-59081000D02*
X53581000Y-59081000D01*
X125500000Y-70460000D02*
X124460000Y-71500000D01*
X74460000Y-64000000D02*
X69500000Y-64000000D01*
X120495000Y-44770000D02*
X125155000Y-49430000D01*
X89700000Y-64000000D02*
X86798400Y-61098400D01*
X85500000Y-29000000D02*
X96995000Y-40495000D01*
X123398300Y-80000000D02*
X124898300Y-81500000D01*
X140698800Y-119310000D02*
X134810000Y-119310000D01*
X83525400Y-61098400D02*
X80427000Y-58000000D01*
X69500000Y-64000000D02*
X68000000Y-65500000D01*
X39960000Y-65500000D02*
X35000000Y-65500000D01*
X53581000Y-59081000D02*
X51500000Y-57000000D01*
X86798400Y-61098400D02*
X83525400Y-61098400D01*
%TO.N,/Net-(A2-D50_MISO)*%
X89454000Y-52369700D02*
X90448500Y-52369700D01*
X121527100Y-86580000D02*
X126000000Y-86580000D01*
X120428900Y-85481800D02*
X121527100Y-86580000D01*
X80194300Y-43110000D02*
X89454000Y-52369700D01*
X120428900Y-82350100D02*
X120428900Y-85481800D01*
X90448500Y-52369700D02*
X120428900Y-82350100D01*
X74010000Y-43110000D02*
X80194300Y-43110000D01*
%TO.N,/Net-(A2-D51_MOSI)*%
X99448300Y-63330200D02*
X82180900Y-46062800D01*
X123569800Y-89120000D02*
X119919100Y-85469300D01*
X71470000Y-43110000D02*
X72521700Y-43110000D01*
X126000000Y-89120000D02*
X123569800Y-89120000D01*
X75474500Y-46062800D02*
X72521700Y-43110000D01*
X119919100Y-85469300D02*
X119919100Y-84101000D01*
X119919100Y-84101000D02*
X100789800Y-64971700D01*
X82180900Y-46062800D02*
X75474500Y-46062800D01*
X99448300Y-64355600D02*
X99448300Y-63330200D01*
X100064400Y-64971700D02*
X99448300Y-64355600D01*
X100789800Y-64971700D02*
X100064400Y-64971700D01*
%TO.N,/Net-(A2-D52_SCK)*%
X107663200Y-95349500D02*
X106686100Y-94372400D01*
X105914200Y-93048300D02*
X104595800Y-93048300D01*
X127101700Y-92761700D02*
X127101700Y-94714400D01*
X104595800Y-93048300D02*
X101813700Y-90266200D01*
X106686100Y-93820200D02*
X105914200Y-93048300D01*
X127101700Y-94714400D02*
X126466600Y-95349500D01*
X101813700Y-90266200D02*
X101189800Y-90266200D01*
X106686100Y-94372400D02*
X106686100Y-93820200D01*
X126466600Y-95349500D02*
X107663200Y-95349500D01*
X126000000Y-91660000D02*
X127101700Y-92761700D01*
%TO.N,/Net-(A2-D53_CS)*%
X78554400Y-46923100D02*
X73794800Y-46923100D01*
X68930000Y-43110000D02*
X69981700Y-43110000D01*
X100634500Y-65323400D02*
X96954700Y-65323400D01*
X119567400Y-87767400D02*
X119567400Y-84256300D01*
X119567400Y-84256300D02*
X100634500Y-65323400D01*
X96954700Y-65323400D02*
X78554400Y-46923100D01*
X73794800Y-46923100D02*
X69981700Y-43110000D01*
X126000000Y-94200000D02*
X119567400Y-87767400D01*
%TO.N,Net-(U3-OUT2)*%
X144580000Y-126930000D02*
X123850000Y-126930000D01*
X123850000Y-126930000D02*
X122000000Y-125080000D01*
%TO.N,/E7*%
X83570600Y-115810600D02*
X85500000Y-117740000D01*
X44420000Y-117240000D02*
X45520900Y-118340900D01*
X45520900Y-118340900D02*
X49920400Y-118340900D01*
X51946800Y-115810600D02*
X83570600Y-115810600D01*
X50770000Y-116987400D02*
X51946800Y-115810600D01*
X50770000Y-117491300D02*
X50770000Y-116987400D01*
X49920400Y-118340900D02*
X50770000Y-117491300D01*
%TO.N,/E6*%
X88040000Y-117740000D02*
X85407200Y-115107200D01*
X85407200Y-115107200D02*
X49092800Y-115107200D01*
X49092800Y-115107200D02*
X46960000Y-117240000D01*
%TO.N,/E5*%
X84711300Y-115458900D02*
X51281100Y-115458900D01*
X51281100Y-115458900D02*
X49500000Y-117240000D01*
X90580000Y-117740000D02*
X89495200Y-118824800D01*
X87629400Y-118824800D02*
X86770000Y-117965400D01*
X86770000Y-117965400D02*
X86770000Y-117517600D01*
X86770000Y-117517600D02*
X84711300Y-115458900D01*
X89495200Y-118824800D02*
X87629400Y-118824800D01*
%TO.N,/E4*%
X86925100Y-123934900D02*
X54405100Y-123934900D01*
X54405100Y-123934900D02*
X51840000Y-126500000D01*
X93120000Y-117740000D02*
X86925100Y-123934900D01*
%TO.N,/E3*%
X92659200Y-116678600D02*
X94598600Y-116678600D01*
X54580000Y-117240000D02*
X55657700Y-116162300D01*
X94598600Y-116678600D02*
X95660000Y-117740000D01*
X80086200Y-119183300D02*
X90663000Y-119183300D01*
X91865700Y-117472100D02*
X92659200Y-116678600D01*
X90663000Y-119183300D02*
X91865700Y-117980600D01*
X77065200Y-116162300D02*
X80086200Y-119183300D01*
X55657700Y-116162300D02*
X77065200Y-116162300D01*
X91865700Y-117980600D02*
X91865700Y-117472100D01*
%TO.N,/E2*%
X98200000Y-117740000D02*
X91653400Y-124286600D01*
X91653400Y-124286600D02*
X59133400Y-124286600D01*
X59133400Y-124286600D02*
X56920000Y-126500000D01*
%TO.N,/E1*%
X94193400Y-124286600D02*
X92800900Y-124286600D01*
X100740000Y-117740000D02*
X94193400Y-124286600D01*
X61321700Y-124638300D02*
X59460000Y-126500000D01*
X92449200Y-124638300D02*
X61321700Y-124638300D01*
X92800900Y-124286600D02*
X92449200Y-124638300D01*
%TO.N,/E0*%
X95387200Y-124638300D02*
X92946600Y-124638300D01*
X92594900Y-124990000D02*
X63510000Y-124990000D01*
X102285500Y-117740000D02*
X95387200Y-124638300D01*
X103280000Y-117740000D02*
X102285500Y-117740000D01*
X63510000Y-124990000D02*
X62000000Y-126500000D01*
X92946600Y-124638300D02*
X92594900Y-124990000D01*
%TO.N,Net-(MUXD1-S0)*%
X70630100Y-92166900D02*
X68792300Y-92166900D01*
X104342800Y-103210200D02*
X104342800Y-102053400D01*
X104342800Y-102053400D02*
X100578500Y-98289100D01*
X100578500Y-98289100D02*
X76752300Y-98289100D01*
X68792300Y-92166900D02*
X55610100Y-78984700D01*
X76752300Y-98289100D02*
X70630100Y-92166900D01*
X104118300Y-103434700D02*
X104342800Y-103210200D01*
X55610100Y-78984700D02*
X55610100Y-78150100D01*
X55610100Y-78150100D02*
X49080000Y-71620000D01*
%TO.N,Net-(MUXD1-S1)*%
X90138500Y-72671700D02*
X90751700Y-72058500D01*
X100257700Y-70518000D02*
X102263600Y-72523900D01*
X86481400Y-69433900D02*
X88430000Y-71382500D01*
X89222900Y-72671700D02*
X90138500Y-72671700D01*
X51620000Y-71620000D02*
X53806100Y-69433900D01*
X90751700Y-71562600D02*
X91796300Y-70518000D01*
X91796300Y-70518000D02*
X100257700Y-70518000D01*
X88430000Y-71878800D02*
X89222900Y-72671700D01*
X88430000Y-71382500D02*
X88430000Y-71878800D01*
X53806100Y-69433900D02*
X86481400Y-69433900D01*
X90751700Y-72058500D02*
X90751700Y-71562600D01*
%TO.N,Net-(MUXD1-S3)*%
X94110100Y-94486700D02*
X96801600Y-97178200D01*
X65770100Y-78983500D02*
X79612500Y-92825900D01*
X79612500Y-92825900D02*
X92956200Y-92825900D01*
X96801600Y-97178200D02*
X105578200Y-97178200D01*
X92956200Y-92825900D02*
X94110100Y-93979800D01*
X94110100Y-93979800D02*
X94110100Y-94486700D01*
X64161700Y-76879100D02*
X65770100Y-78487500D01*
X65770100Y-78487500D02*
X65770100Y-78983500D01*
X56700000Y-71620000D02*
X61959100Y-76879100D01*
X105578200Y-97178200D02*
X110900000Y-102500000D01*
X61959100Y-76879100D02*
X64161700Y-76879100D01*
%TO.N,Net-(MUXD1-S2)*%
X83826600Y-94397200D02*
X83826600Y-93540200D01*
X108360000Y-102500000D02*
X103445700Y-97585700D01*
X87015100Y-97585700D02*
X83826600Y-94397200D01*
X83826600Y-93540200D02*
X83469400Y-93183000D01*
X58150100Y-75610100D02*
X54160000Y-71620000D01*
X58150100Y-79007500D02*
X58150100Y-75610100D01*
X103445700Y-97585700D02*
X87015100Y-97585700D01*
X72325600Y-93183000D02*
X58150100Y-79007500D01*
X83469400Y-93183000D02*
X72325600Y-93183000D01*
%TO.N,/E15*%
X63282800Y-103082800D02*
X62200000Y-102000000D01*
X99479100Y-98699100D02*
X74655900Y-98699100D01*
X103280000Y-102500000D02*
X99479100Y-98699100D01*
X74655900Y-98699100D02*
X70272200Y-103082800D01*
X70272200Y-103082800D02*
X63282800Y-103082800D01*
%TO.N,/E14*%
X100740000Y-102500000D02*
X97290800Y-99050800D01*
X74801600Y-99050800D02*
X70417900Y-103434500D01*
X61094500Y-103434500D02*
X59660000Y-102000000D01*
X97290800Y-99050800D02*
X74801600Y-99050800D01*
X70417900Y-103434500D02*
X61094500Y-103434500D01*
%TO.N,/E13*%
X58906200Y-103786200D02*
X57120000Y-102000000D01*
X70563500Y-103786200D02*
X58906200Y-103786200D01*
X98200000Y-102500000D02*
X95102500Y-99402500D01*
X91840000Y-126500000D02*
X93350000Y-124990000D01*
X93350000Y-124990000D02*
X95532800Y-124990000D01*
X74947200Y-99402500D02*
X70563500Y-103786200D01*
X95532800Y-124990000D02*
X99594600Y-120928200D01*
X95102500Y-99402500D02*
X74947200Y-99402500D01*
X99594600Y-120928200D02*
X99885500Y-120928200D01*
%TO.N,/E12*%
X92914200Y-99754200D02*
X75092800Y-99754200D01*
X94896600Y-126500000D02*
X98681000Y-122715600D01*
X56717900Y-104137900D02*
X54580000Y-102000000D01*
X95660000Y-102500000D02*
X92914200Y-99754200D01*
X94380000Y-126500000D02*
X94896600Y-126500000D01*
X75092800Y-99754200D02*
X70709100Y-104137900D01*
X70709100Y-104137900D02*
X56717900Y-104137900D01*
%TO.N,/E11*%
X74978600Y-100365700D02*
X90461600Y-100365700D01*
X92595900Y-102500000D02*
X93120000Y-102500000D01*
X96920000Y-126500000D02*
X96920000Y-125497000D01*
X96920000Y-125497000D02*
X98789000Y-123628000D01*
X54529600Y-104489600D02*
X70854700Y-104489600D01*
X70854700Y-104489600D02*
X74978600Y-100365700D01*
X90461600Y-100365700D02*
X92595900Y-102500000D01*
X52040000Y-102000000D02*
X54529600Y-104489600D01*
%TO.N,/E10*%
X99460000Y-125021600D02*
X98828100Y-124389700D01*
X52341300Y-104841300D02*
X71000300Y-104841300D01*
X75124200Y-100717400D02*
X88797400Y-100717400D01*
X99460000Y-126500000D02*
X99460000Y-125021600D01*
X71000300Y-104841300D02*
X75124200Y-100717400D01*
X88797400Y-100717400D02*
X90580000Y-102500000D01*
X49500000Y-102000000D02*
X52341300Y-104841300D01*
%TO.N,/E9*%
X46960000Y-102000000D02*
X50153000Y-105193000D01*
X50153000Y-105193000D02*
X71145900Y-105193000D01*
X86609100Y-101069100D02*
X88040000Y-102500000D01*
X71145900Y-105193000D02*
X75269800Y-101069100D01*
X75269800Y-101069100D02*
X86609100Y-101069100D01*
%TO.N,/E8*%
X104540000Y-117500000D02*
X104540000Y-126500000D01*
X44420000Y-102000000D02*
X48316400Y-105896400D01*
X97910300Y-114910300D02*
X101950300Y-114910300D01*
X85500000Y-102500000D02*
X97910300Y-114910300D01*
X82103600Y-105896400D02*
X85500000Y-102500000D01*
X48316400Y-105896400D02*
X82103600Y-105896400D01*
X101950300Y-114910300D02*
X104540000Y-117500000D01*
%TO.N,Net-(MUXA1-COM)*%
X71291500Y-105544700D02*
X75415400Y-101420800D01*
X107090100Y-117469500D02*
X107090100Y-117964800D01*
X75415400Y-101420800D02*
X85910200Y-101420800D01*
X41640000Y-94000000D02*
X45690200Y-98050200D01*
X98116400Y-114071800D02*
X103692400Y-114071800D01*
X85910200Y-101420800D02*
X86770000Y-102280600D01*
X107090100Y-117964800D02*
X116490200Y-127364900D01*
X45690200Y-102263700D02*
X48971200Y-105544700D01*
X48971200Y-105544700D02*
X71291500Y-105544700D01*
X116490200Y-127364900D02*
X138664900Y-127364900D01*
X86770000Y-102725400D02*
X98116400Y-114071800D01*
X103692400Y-114071800D02*
X107090100Y-117469500D01*
X138664900Y-127364900D02*
X139500000Y-128200000D01*
X45690200Y-98050200D02*
X45690200Y-102263700D01*
X86770000Y-102280600D02*
X86770000Y-102725400D01*
%TO.N,Net-(U3-IN1)*%
X74160000Y-58000000D02*
X76151500Y-59991500D01*
X76151500Y-59991500D02*
X81878100Y-59991500D01*
X92435900Y-100305900D02*
X91181900Y-100305900D01*
X94390000Y-102779200D02*
X94390000Y-102260000D01*
X109630000Y-117963700D02*
X109630000Y-117480700D01*
X109630000Y-117480700D02*
X96543600Y-104394300D01*
X110610200Y-118943900D02*
X109630000Y-117963700D01*
X132481600Y-118943900D02*
X110610200Y-118943900D01*
X96543600Y-104394300D02*
X96005100Y-104394300D01*
X94390000Y-102260000D02*
X92435900Y-100305900D01*
X96005100Y-104394300D02*
X94390000Y-102779200D01*
X144580000Y-124390000D02*
X137927700Y-124390000D01*
X81878100Y-59991500D02*
X83718600Y-61832000D01*
X137927700Y-124390000D02*
X132481600Y-118943900D01*
%TO.N,Net-(U3-IN2)*%
X96868300Y-93443400D02*
X95899100Y-92474200D01*
X144580000Y-121850000D02*
X145774000Y-120656000D01*
X145006700Y-118040000D02*
X142346200Y-118040000D01*
X141076200Y-116770000D02*
X134136600Y-116770000D01*
X142346200Y-118040000D02*
X141076200Y-116770000D01*
X96868300Y-94707700D02*
X96868300Y-93443400D01*
X114069600Y-96703000D02*
X98863600Y-96703000D01*
X145774000Y-118807300D02*
X145006700Y-118040000D01*
X98863600Y-96703000D02*
X96868300Y-94707700D01*
X145774000Y-120656000D02*
X145774000Y-118807300D01*
X134136600Y-116770000D02*
X114069600Y-96703000D01*
%TO.N,Net-(MUXC1-COM)*%
X90752300Y-64449400D02*
X88619400Y-66582300D01*
X49943200Y-66582300D02*
X49737300Y-66376400D01*
X41880000Y-117240000D02*
X42266200Y-117240000D01*
X90752300Y-61332300D02*
X90752300Y-64449400D01*
X89500000Y-60080000D02*
X90752300Y-61332300D01*
X42266200Y-117240000D02*
X43120200Y-116386000D01*
X88619400Y-66582300D02*
X49943200Y-66582300D01*
%TO.N,Net-(U2-+)*%
X102190000Y-36770000D02*
X103287400Y-37867400D01*
X103287400Y-39717900D02*
X93085300Y-49920000D01*
X93085300Y-49920000D02*
X89500000Y-49920000D01*
X103287400Y-37867400D02*
X103287400Y-39717900D01*
%TO.N,Net-(MUXC1-S0)*%
X63338300Y-118641700D02*
X56063800Y-118641700D01*
X64740000Y-117240000D02*
X63338300Y-118641700D01*
%TO.N,Net-(MUXC1-S1)*%
X41460000Y-71620000D02*
X42786600Y-72946600D01*
X42786600Y-94205500D02*
X48034300Y-99453200D01*
X42786600Y-72946600D02*
X42786600Y-94205500D01*
X48034300Y-99453200D02*
X63611600Y-99453200D01*
%TO.N,Net-(MUXC1-S3)*%
X65590000Y-97770000D02*
X69820000Y-102000000D01*
X64220000Y-92220800D02*
X65590000Y-93590800D01*
X47990100Y-78984700D02*
X61226200Y-92220800D01*
X65590000Y-93590800D02*
X65590000Y-97770000D01*
X61226200Y-92220800D02*
X64220000Y-92220800D01*
X46540000Y-71620000D02*
X47990100Y-73070100D01*
X47990100Y-73070100D02*
X47990100Y-78984700D01*
%TO.N,Net-(MUXC1-S2)*%
X45450100Y-78984700D02*
X59272500Y-92807100D01*
X60690100Y-95410100D02*
X67280000Y-102000000D01*
X44000000Y-71620000D02*
X45450100Y-73070100D01*
X59715600Y-92807100D02*
X60690100Y-93781600D01*
X60690100Y-93781600D02*
X60690100Y-95410100D01*
X45450100Y-73070100D02*
X45450100Y-78984700D01*
X59272500Y-92807100D02*
X59715600Y-92807100D01*
%TO.N,Net-(U2--)*%
X98055400Y-41225700D02*
X93066000Y-46215100D01*
X95919100Y-35309700D02*
X95919100Y-37834000D01*
X96998800Y-34230000D02*
X95919100Y-35309700D01*
X102190000Y-34230000D02*
X96998800Y-34230000D01*
X95919100Y-37834000D02*
X98055400Y-39970300D01*
X93066000Y-46215100D02*
X87180400Y-46215100D01*
X98055400Y-39970300D02*
X98055400Y-41225700D01*
%TO.N,Net-(MUXB1-COM)*%
X86377400Y-97937400D02*
X82680000Y-94240000D01*
X122000000Y-114920000D02*
X119234800Y-114920000D01*
X107090000Y-102775200D02*
X107090000Y-102258200D01*
X119234800Y-114920000D02*
X107090000Y-102775200D01*
X102769200Y-97937400D02*
X86377400Y-97937400D01*
X107090000Y-102258200D02*
X102769200Y-97937400D01*
%TO.N,Net-(MUXB1-S0)*%
X102163100Y-92392300D02*
X89030100Y-79259300D01*
X89030100Y-78570100D02*
X82080000Y-71620000D01*
X89030100Y-79259300D02*
X89030100Y-78570100D01*
X105042700Y-94240000D02*
X103195000Y-92392300D01*
X105540000Y-94240000D02*
X105042700Y-94240000D01*
X103195000Y-92392300D02*
X102163100Y-92392300D01*
%TO.N,Net-(MUXB1-S1)*%
X105880600Y-92040600D02*
X108080000Y-94240000D01*
X84620000Y-71620000D02*
X91570100Y-78570100D01*
X91570100Y-78570100D02*
X91570100Y-79259300D01*
X104351400Y-92040600D02*
X105880600Y-92040600D01*
X91570100Y-79259300D02*
X104351400Y-92040600D01*
%TO.N,Net-(MUXB1-S3)*%
X91153700Y-70166300D02*
X89700000Y-71620000D01*
X101786300Y-70166300D02*
X91153700Y-70166300D01*
X110620000Y-79000000D02*
X101786300Y-70166300D01*
%TO.N,Net-(MUXB1-S2)*%
X101730100Y-78779100D02*
X101730100Y-79255800D01*
X87160000Y-71620000D02*
X93467200Y-77927200D01*
X93467200Y-77927200D02*
X100878200Y-77927200D01*
X102532800Y-80058500D02*
X107021500Y-80058500D01*
X107021500Y-80058500D02*
X108080000Y-79000000D01*
X100878200Y-77927200D02*
X101730100Y-78779100D01*
X101730100Y-79255800D02*
X102532800Y-80058500D01*
%TO.N,/Net-(A2-D20{slash}SDA)*%
X89344400Y-51265400D02*
X67583100Y-29504100D01*
X97004800Y-51265400D02*
X89344400Y-51265400D01*
X125995000Y-51970000D02*
X97709400Y-51970000D01*
X67583100Y-29504100D02*
X58915800Y-29504100D01*
X97709400Y-51970000D02*
X97004800Y-51265400D01*
X56230000Y-27870000D02*
X57281700Y-27870000D01*
X58915800Y-29504100D02*
X57281700Y-27870000D01*
%TO.N,/Net-(A2-D21{slash}SCL)*%
X53690000Y-27870000D02*
X54741700Y-27870000D01*
X89322200Y-51740600D02*
X96807500Y-51740600D01*
X99576900Y-54510000D02*
X125995000Y-54510000D01*
X54741700Y-27870000D02*
X60871900Y-34000200D01*
X60871900Y-34000200D02*
X71581800Y-34000200D01*
X96807500Y-51740600D02*
X99576900Y-54510000D01*
X71581800Y-34000200D02*
X89322200Y-51740600D01*
%TO.N,Net-(MUXA1-S3)*%
X69580000Y-78760000D02*
X72400000Y-78760000D01*
X72400000Y-78760000D02*
X79540000Y-71620000D01*
%TO.N,Net-(MUXA1-S2)*%
X73201600Y-75418400D02*
X77000000Y-71620000D01*
X70381600Y-75418400D02*
X73201600Y-75418400D01*
X67040000Y-78760000D02*
X70381600Y-75418400D01*
%TO.N,Net-(A2-D3)*%
X68884800Y-60344800D02*
X80964800Y-60344800D01*
X80964800Y-60344800D02*
X84620000Y-64000000D01*
X62535900Y-57969700D02*
X63560400Y-56945200D01*
X65485200Y-56945200D02*
X66540000Y-58000000D01*
X66540000Y-58000000D02*
X68884800Y-60344800D01*
X51620000Y-64000000D02*
X56012300Y-59607700D01*
X56012300Y-59607700D02*
X61343300Y-59607700D01*
X63560400Y-56945200D02*
X65485200Y-56945200D01*
X62535900Y-58415100D02*
X62535900Y-57969700D01*
X61343300Y-59607700D02*
X62535900Y-58415100D01*
%TO.N,Net-(A2-D4)*%
X59312000Y-44161700D02*
X65270100Y-50119800D01*
X65270100Y-50119800D02*
X65270100Y-50622400D01*
X53690000Y-43110000D02*
X54741700Y-43110000D01*
X76606100Y-59439800D02*
X79540000Y-59439800D01*
X55793400Y-44161700D02*
X59312000Y-44161700D01*
X74112600Y-56450400D02*
X75430000Y-57767800D01*
X75430000Y-57767800D02*
X75430000Y-58263700D01*
X71098100Y-56450400D02*
X74112600Y-56450400D01*
X75430000Y-58263700D02*
X76606100Y-59439800D01*
X65270100Y-50622400D02*
X71098100Y-56450400D01*
X54741700Y-43110000D02*
X55793400Y-44161700D01*
%TO.N,Net-(A2-D2)*%
X64000000Y-59840400D02*
X64000000Y-58000000D01*
X58200600Y-59959400D02*
X63881000Y-59959400D01*
X64856100Y-60696500D02*
X80284700Y-60696500D01*
X86105300Y-65054700D02*
X87160000Y-64000000D01*
X80284700Y-60696500D02*
X83350000Y-63761800D01*
X83350000Y-63761800D02*
X83350000Y-64283200D01*
X83350000Y-64283200D02*
X84121500Y-65054700D01*
X64000000Y-59840400D02*
X64856100Y-60696500D01*
X63881000Y-59959400D02*
X64000000Y-59840400D01*
X54160000Y-64000000D02*
X58200600Y-59959400D01*
X84121500Y-65054700D02*
X86105300Y-65054700D01*
%TO.N,Net-(U2-Ref)*%
X102380000Y-45690000D02*
X108760000Y-39310000D01*
X108760000Y-39310000D02*
X109810000Y-39310000D01*
%TO.N,Net-(U6-QH')*%
X46540000Y-64000000D02*
X49474000Y-66934000D01*
X89306000Y-66934000D02*
X92240000Y-64000000D01*
X49474000Y-66934000D02*
X89306000Y-66934000D01*
%TD*%
M02*
