M48
; DRILL file KiCad 10.0.5 date 2026-09-10T12:16:28
; FORMAT={-:-/ absolute / metric / decimal}
; #@! TF.CreationDate,2026-09-10T12:16:28-04:00
; #@! TF.GenerationSoftware,Kicad,Pcbnew,10.0.5
; #@! TF.FileFunction,MixedPlating,1,2
FMAT,2
METRIC
; #@! TA.AperFunction,Plated,PTH,ViaDrill
T1C0.300
; #@! TA.AperFunction,Plated,PTH,ComponentDrill
T2C0.800
; #@! TA.AperFunction,Plated,PTH,ComponentDrill
T3C1.000
; #@! TA.AperFunction,Plated,PTH,ComponentDrill
T4C1.100
; #@! TA.AperFunction,NonPlated,NPTH,ComponentDrill
T5C1.100
%
G90
G05
T1
X43.12Y-116.386
X49.737Y-66.376
X56.064Y-118.642
X63.612Y-99.453
X79.54Y-59.44
X83.719Y-61.832
X87.18Y-46.215
X91.182Y-100.306
X95.899Y-92.474
X98.681Y-122.716
X98.789Y-123.628
X98.828Y-124.39
X99.885Y-120.928
X101.19Y-90.266
X102.264Y-72.524
X104.118Y-103.435
X118.951Y-84.436
T2
X32.0Y-94.0
X32.5Y-119.5
X34.5Y-48.5
X35.0Y-65.5
X35.0Y-70.5
X37.0Y-94.0
X37.5Y-119.5
X39.5Y-48.5
X41.46Y-64.0
X41.46Y-71.62
X41.64Y-78.76
X41.64Y-94.0
X41.88Y-102.0
X41.88Y-117.24
X44.0Y-64.0
X44.0Y-71.62
X44.18Y-78.76
X44.18Y-94.0
X44.42Y-102.0
X44.42Y-117.24
X46.54Y-64.0
X46.54Y-71.62
X46.72Y-78.76
X46.72Y-94.0
X46.96Y-102.0
X46.96Y-117.24
X49.08Y-64.0
X49.08Y-71.62
X49.26Y-78.76
X49.26Y-94.0
X49.5Y-102.0
X49.5Y-117.24
X51.5Y-52.0
X51.5Y-57.0
X51.62Y-64.0
X51.62Y-71.62
X51.8Y-78.76
X51.8Y-94.0
X52.04Y-102.0
X52.04Y-117.24
X54.16Y-64.0
X54.16Y-71.62
X54.34Y-78.76
X54.34Y-94.0
X54.58Y-102.0
X54.58Y-117.24
X56.7Y-64.0
X56.7Y-71.62
X56.88Y-78.76
X56.88Y-94.0
X57.12Y-102.0
X57.12Y-117.24
X58.92Y-50.38
X58.92Y-58.0
X59.24Y-64.0
X59.24Y-71.62
X59.42Y-78.76
X59.42Y-94.0
X59.66Y-102.0
X59.66Y-117.24
X61.46Y-50.38
X61.46Y-58.0
X61.96Y-78.76
X61.96Y-94.0
X62.2Y-102.0
X62.2Y-117.24
X64.0Y-50.38
X64.0Y-58.0
X64.5Y-78.76
X64.5Y-94.0
X64.74Y-102.0
X64.74Y-117.24
X66.54Y-50.38
X66.54Y-58.0
X67.04Y-78.76
X67.04Y-94.0
X67.28Y-102.0
X67.28Y-117.24
X68.0Y-65.5
X68.0Y-70.5
X69.08Y-50.38
X69.08Y-58.0
X69.58Y-78.76
X69.58Y-94.0
X69.82Y-102.0
X69.82Y-117.24
X71.62Y-50.38
X71.62Y-58.0
X74.16Y-50.38
X74.16Y-58.0
X74.46Y-64.0
X74.46Y-71.62
X76.7Y-50.38
X76.7Y-58.0
X77.0Y-64.0
X77.0Y-71.62
X78.0Y-114.0
X78.0Y-119.0
X79.54Y-64.0
X79.54Y-71.62
X82.08Y-64.0
X82.08Y-71.62
X82.68Y-79.0
X82.68Y-94.24
X82.96Y-102.5
X82.96Y-117.74
X84.0Y-49.42
X84.0Y-59.58
X84.62Y-64.0
X84.62Y-71.62
X85.22Y-79.0
X85.22Y-94.24
X85.5Y-29.0
X85.5Y-102.5
X85.5Y-117.74
X87.16Y-64.0
X87.16Y-71.62
X87.76Y-79.0
X87.76Y-94.24
X88.0Y-29.0
X88.04Y-102.5
X88.04Y-117.74
X89.5Y-49.92
X89.5Y-60.08
X89.7Y-64.0
X89.7Y-71.62
X90.3Y-79.0
X90.3Y-94.24
X90.58Y-102.5
X90.58Y-117.74
X92.24Y-64.0
X92.24Y-71.62
X92.84Y-79.0
X92.84Y-94.24
X93.12Y-102.5
X93.12Y-117.74
X95.38Y-79.0
X95.38Y-94.24
X95.66Y-102.5
X95.66Y-117.74
X96.995Y-27.77
X96.995Y-32.77
X96.995Y-35.77
X96.995Y-40.77
X96.995Y-44.27
X96.995Y-49.27
X97.92Y-79.0
X97.92Y-94.24
X98.2Y-102.5
X98.2Y-117.74
X100.46Y-79.0
X100.46Y-94.24
X100.5Y-63.92
X100.5Y-74.08
X100.74Y-102.5
X100.74Y-117.74
X101.42Y-27.5
X102.19Y-31.69
X102.19Y-34.23
X102.19Y-36.77
X102.19Y-39.31
X102.38Y-45.69
X102.38Y-48.23
X102.38Y-50.77
X102.38Y-53.31
X103.0Y-79.0
X103.0Y-94.24
X103.28Y-102.5
X103.28Y-117.74
X105.54Y-79.0
X105.54Y-94.24
X105.82Y-102.5
X105.82Y-117.74
X107.5Y-63.92
X107.5Y-74.08
X108.08Y-79.0
X108.08Y-94.24
X108.36Y-102.5
X108.36Y-117.74
X109.81Y-31.69
X109.81Y-34.23
X109.81Y-36.77
X109.81Y-39.31
X110.0Y-45.69
X110.0Y-48.23
X110.0Y-50.77
X110.0Y-53.31
X110.62Y-79.0
X110.62Y-94.24
X110.9Y-102.5
X110.9Y-117.74
X111.58Y-27.5
X114.5Y-63.92
X114.5Y-74.08
X116.5Y-84.0
X116.5Y-89.0
X120.495Y-39.77
X120.495Y-44.77
X121.34Y-128.5
X121.5Y-66.5
X121.5Y-71.5
X121.5Y-80.0
X121.5Y-85.0
X122.0Y-101.92
X122.0Y-112.08
X122.0Y-114.92
X122.0Y-125.08
X127.5Y-112.0
X127.5Y-117.0
X128.0Y-105.96
X130.0Y-120.0
X130.0Y-125.0
X130.5Y-105.96
X131.5Y-128.5
T3
X38.45Y-27.87
X38.45Y-43.11
X40.99Y-27.87
X40.99Y-43.11
X43.53Y-27.87
X43.53Y-43.11
X46.07Y-27.87
X46.07Y-43.11
X48.61Y-27.87
X48.61Y-43.11
X51.15Y-27.87
X51.15Y-43.11
X53.69Y-27.87
X53.69Y-43.11
X56.23Y-27.87
X56.23Y-43.11
X58.77Y-27.87
X58.77Y-43.11
X61.31Y-27.87
X61.31Y-43.11
X63.85Y-27.87
X63.85Y-43.11
X66.39Y-27.87
X66.39Y-43.11
X68.93Y-27.87
X68.93Y-43.11
X71.47Y-27.87
X71.47Y-43.11
X74.01Y-27.87
X74.01Y-43.11
X125.5Y-65.38
X125.5Y-67.92
X125.5Y-70.46
X125.5Y-73.0
X125.995Y-31.65
X125.995Y-34.19
X125.995Y-36.73
X125.995Y-39.27
X125.995Y-41.81
X125.995Y-44.35
X125.995Y-46.89
X125.995Y-49.43
X125.995Y-51.97
X125.995Y-54.51
X126.0Y-81.5
X126.0Y-84.04
X126.0Y-86.58
X126.0Y-89.12
X126.0Y-91.66
X126.0Y-94.2
X139.5Y-112.96
X139.5Y-115.5
X139.5Y-118.04
X139.5Y-120.58
X139.5Y-123.12
X139.5Y-125.66
X139.5Y-128.2
X144.58Y-111.69
X144.58Y-114.23
X144.58Y-116.77
X144.58Y-119.31
X144.58Y-121.85
X144.58Y-124.39
X144.58Y-126.93
X144.58Y-129.47
T4
X44.22Y-126.5
X46.76Y-126.5
X49.3Y-126.5
X51.84Y-126.5
X54.38Y-126.5
X56.92Y-126.5
X59.46Y-126.5
X62.0Y-126.5
X86.76Y-126.5
X89.3Y-126.5
X91.84Y-126.5
X94.38Y-126.5
X96.92Y-126.5
X99.46Y-126.5
X102.0Y-126.5
X104.54Y-126.5
X137.0Y-105.0
X137.0Y-107.54
T5
X134.46Y-105.0
X134.46Y-107.54
M30
